<svg width="16" height="16" viewBox="0 0 16 16" fill="none" xmlns="http://www.w3.org/2000/svg">
<path d="M7.65244 8.75175L9.75563 10.8549C9.90213 11.0014 10.0854 11.0739 10.3054 11.0724C10.5254 11.0709 10.7086 10.997 10.8549 10.8506C11.0014 10.7041 11.0747 10.5209 11.0747 10.3009C11.0747 10.0809 11.0014 9.89763 10.8549 9.75113L8.75175 7.65244L10.8549 5.54925C11.0014 5.40275 11.0747 5.2195 11.0747 4.9995C11.0747 4.7795 11.0014 4.59631 10.8549 4.44994C10.7086 4.30344 10.5254 4.23019 10.3054 4.23019C10.0854 4.23019 9.90213 4.30344 9.75563 4.44994L7.65244 6.55313L5.54925 4.44994C5.40275 4.30344 5.22025 4.23019 5.00175 4.23019C4.78325 4.23019 4.60075 4.30344 4.45425 4.44994C4.30788 4.59631 4.23469 4.7795 4.23469 4.9995C4.23469 5.2195 4.30788 5.40275 4.45425 5.54925L6.55313 7.65244L4.44994 9.75563C4.30344 9.90213 4.23094 10.0846 4.23244 10.3031C4.23394 10.5216 4.30788 10.7041 4.45425 10.8506C4.60075 10.997 4.784 11.0702 5.004 11.0702C5.224 11.0702 5.40725 10.997 5.55375 10.8506L7.65244 8.75175ZM7.65244 15.3049C6.59106 15.3049 5.59513 15.1043 4.66463 14.703C3.73425 14.3018 2.92481 13.7569 2.23631 13.0686C1.54794 12.3801 1.00313 11.5706 0.601875 10.6403C0.200625 9.70975 0 8.71381 0 7.65244C0 6.59106 0.200625 5.59513 0.601875 4.66463C1.00313 3.73425 1.54794 2.92481 2.23631 2.23631C2.92481 1.54794 3.73425 1.00312 4.66463 0.601875C5.59513 0.200625 6.59106 0 7.65244 0C8.71381 0 9.70975 0.200625 10.6403 0.601875C11.5706 1.00312 12.3801 1.54794 13.0686 2.23631C13.7569 2.92481 14.3018 3.73425 14.703 4.66463C15.1043 5.59513 15.3049 6.59106 15.3049 7.65244C15.3049 8.71381 15.1043 9.70975 14.703 10.6403C14.3018 11.5706 13.7569 12.3801 13.0686 13.0686C12.3801 13.7569 11.5706 14.3018 10.6403 14.703C9.70975 15.1043 8.71381 15.3049 7.65244 15.3049Z" fill="#251F00"/>
</svg>
