<svg width="20" height="20" viewBox="0 0 20 20" fill="none" xmlns="http://www.w3.org/2000/svg">
<mask id="mask0_6_16162" style="mask-type:alpha" maskUnits="userSpaceOnUse" x="0" y="0" width="20" height="20">
<rect width="20" height="20" fill="#D9D9D9"/>
</mask>
<g mask="url(#mask0_6_16162)">
<path d="M3.55924 16.1694C3.08036 16.1694 2.67244 16.0012 2.33549 15.6649C1.99855 15.3286 1.83008 14.9214 1.83008 14.4432V11.8892C1.83008 11.7506 1.87424 11.6308 1.96258 11.5296C2.05091 11.4285 2.16452 11.3653 2.30341 11.3401C2.60619 11.2441 2.85299 11.0768 3.04383 10.8382C3.23466 10.5994 3.33008 10.3192 3.33008 9.99756C3.33008 9.6759 3.23466 9.39569 3.04383 9.15694C2.85299 8.91833 2.60619 8.75291 2.30341 8.66069C2.16452 8.63541 2.05091 8.57222 1.96258 8.4711C1.87424 8.36985 1.83008 8.24965 1.83008 8.11048V5.5559C1.83008 5.07812 1.99855 4.67111 2.33549 4.33486C2.67244 3.99874 3.08036 3.83069 3.55924 3.83069H16.4397C16.9185 3.83069 17.3265 3.99888 17.6634 4.33527C18.0004 4.67152 18.1688 5.07874 18.1688 5.55694V8.11798C18.1688 8.2552 18.1247 8.37367 18.0363 8.4734C17.948 8.57298 17.8344 8.6352 17.6955 8.66006C17.3927 8.7527 17.1459 8.91833 16.9551 9.15694C16.7642 9.39569 16.6688 9.6759 16.6688 9.99756C16.6688 10.3192 16.7642 10.5994 16.9551 10.8382C17.1459 11.0768 17.3927 11.2439 17.6955 11.3394C17.8344 11.3642 17.948 11.4261 18.0363 11.5253C18.1247 11.6244 18.1688 11.7442 18.1688 11.8846V14.4442C18.1688 14.922 18.0004 15.329 17.6634 15.6653C17.3265 16.0014 16.9185 16.1694 16.4397 16.1694H3.55924ZM3.55924 14.4403H16.4397V12.6292C15.9985 12.362 15.6383 11.9969 15.3588 11.534C15.0794 11.0711 14.9397 10.5592 14.9397 9.99819C14.9397 9.43722 15.0794 8.9259 15.3588 8.46423C15.6383 8.00256 15.9985 7.63812 16.4397 7.3709V5.55985H3.55924V7.3709C4.00702 7.63812 4.36897 8.00284 4.64508 8.46506C4.92119 8.92715 5.05924 9.43826 5.05924 9.9984C5.05924 10.5584 4.92119 11.0701 4.64508 11.5334C4.36897 11.9967 4.00702 12.362 3.55924 12.6292V14.4403ZM9.99758 13.4603C10.2172 13.4603 10.404 13.3846 10.5582 13.2334C10.7122 13.0821 10.7892 12.8967 10.7892 12.6771C10.7892 12.4577 10.714 12.2709 10.5634 12.1167C10.4129 11.9626 10.2263 11.8855 10.0038 11.8855C9.78591 11.8855 9.59904 11.9608 9.4432 12.1113C9.28751 12.2619 9.20966 12.4484 9.20966 12.6709C9.20966 12.8888 9.28605 13.0749 9.43883 13.229C9.59174 13.3832 9.77799 13.4603 9.99758 13.4603ZM9.99758 10.7899C10.2172 10.7899 10.404 10.7135 10.5582 10.5607C10.7122 10.4078 10.7892 10.2215 10.7892 10.0019C10.7892 9.78235 10.714 9.59548 10.5634 9.44131C10.4129 9.28728 10.2263 9.21027 10.0038 9.21027C9.78591 9.21027 9.59904 9.28555 9.4432 9.4361C9.28751 9.58666 9.20966 9.77319 9.20966 9.99569C9.20966 10.2136 9.28605 10.4005 9.43883 10.5563C9.59174 10.712 9.77799 10.7899 9.99758 10.7899ZM9.99758 8.11465C10.2172 8.11465 10.404 8.03819 10.5582 7.88527C10.7122 7.73249 10.7892 7.54631 10.7892 7.32673C10.7892 7.10715 10.714 6.92111 10.5634 6.76861C10.4129 6.61611 10.2263 6.53985 10.0038 6.53985C9.78591 6.53985 9.59904 6.61465 9.4432 6.76423C9.28751 6.91381 9.20966 7.09923 9.20966 7.32048C9.20966 7.5384 9.28605 7.7252 9.43883 7.8809C9.59174 8.03673 9.77799 8.11465 9.99758 8.11465Z" fill="#251F00"/>
</g>
</svg>
