<svg width="19" height="19" viewBox="0 0 19 19" fill="none" xmlns="http://www.w3.org/2000/svg">
<path fill-rule="evenodd" clip-rule="evenodd" d="M16.2317 2.76113C14.4456 0.981513 12.0703 0.00103188 9.53965 0C4.32531 0 0.0813726 4.22331 0.0793373 9.41434C0.0786076 11.0738 0.514234 12.6934 1.34213 14.1212L0 19L5.01504 17.6908C6.3968 18.4408 7.95256 18.8362 9.53589 18.8367H9.53973C9.54003 18.8367 9.5395 18.8367 9.5398 18.8367C14.7536 18.8367 18.9978 14.613 19 9.42186C19.0009 6.90613 18.0178 4.54067 16.2317 2.76113ZM9.53969 17.2467H9.5365C8.12563 17.2461 6.74176 16.8689 5.53449 16.1559L5.2474 15.9863L2.27141 16.7632L3.06578 13.8756L2.8788 13.5794C2.09173 12.3335 1.67603 10.8935 1.67665 9.41487C1.67834 5.1003 5.20574 1.59013 9.54287 1.59013C11.643 1.59078 13.6173 2.40586 15.1019 3.885C16.5864 5.36415 17.4035 7.33027 17.4027 9.42121C17.4009 13.7361 13.8736 17.2467 9.53969 17.2467Z" fill="white"/>
<path fill-rule="evenodd" clip-rule="evenodd" d="M13.8524 11.3859C13.6161 11.2681 12.4539 10.6991 12.2372 10.6205C12.0206 10.542 11.863 10.5028 11.7054 10.7383C11.5478 10.9737 11.0948 11.5036 10.9569 11.6607C10.8191 11.8176 10.6811 11.8374 10.4448 11.7195C10.2084 11.6018 9.44678 11.3534 8.54392 10.5519C7.84117 9.92808 7.3668 9.15776 7.22886 8.92218C7.091 8.68672 7.21419 8.55942 7.33254 8.44209C7.43888 8.33664 7.56894 8.16734 7.68714 8.02995C7.80531 7.89263 7.84471 7.79441 7.9235 7.63752C8.0023 7.48049 7.96294 7.34309 7.90381 7.22538C7.84471 7.10763 7.37198 5.94971 7.17502 5.47859C6.98309 5.01994 6.78824 5.08208 6.64312 5.07478C6.50545 5.06794 6.34766 5.06653 6.1901 5.06653C6.03254 5.06653 5.7764 5.12542 5.55978 5.36088C5.34312 5.59642 4.73242 6.1656 4.73242 7.32341C4.73242 8.48138 5.57944 9.60001 5.69764 9.75698C5.8158 9.91405 7.36446 12.2901 9.73567 13.3091C10.2996 13.5516 10.7399 13.6963 11.0832 13.8047C11.6495 13.9838 12.1648 13.9585 12.5721 13.8979C13.0263 13.8304 13.9706 13.3288 14.1676 12.7794C14.3646 12.2298 14.3646 11.7587 14.3054 11.6606C14.2464 11.5625 14.0888 11.5036 13.8524 11.3859Z" fill="white"/>
</svg>
