<svg width="16" height="16" viewBox="0 0 16 16" fill="none" xmlns="http://www.w3.org/2000/svg">
<path d="M9.15544 3.35791C9.15544 2.89158 8.7774 2.51354 8.31107 2.51354C7.84474 2.51354 7.4667 2.89158 7.4667 3.35791V8.0883H4.57744C4.11111 8.0883 3.73307 8.46634 3.73307 8.93267C3.73307 9.39901 4.11111 9.77705 4.57744 9.77705H9.15544V3.35791Z" fill="#006DFF"/>
<path fill-rule="evenodd" clip-rule="evenodd" d="M8 0C3.582 0 0 3.582 0 8C0 12.418 3.582 16 8 16C12.418 16 16 12.418 16 8C16 3.582 12.418 0 8 0ZM1.68874 8C1.68874 4.52008 4.52008 1.68874 8 1.68874C11.4799 1.68874 14.3113 4.52008 14.3113 8C14.3113 11.4794 11.4799 14.3113 8 14.3113C4.52063 14.3113 1.68874 11.4799 1.68874 8Z" fill="#006DFF"/>
<path opacity="0.1" d="M1.68945 7.99973C1.68945 4.51981 4.52079 1.68848 8.00071 1.68848C11.4806 1.68848 14.312 4.51981 14.312 7.99973C14.312 11.4791 11.4806 14.311 8.00071 14.311C4.52134 14.311 1.68945 11.4796 1.68945 7.99973Z" fill="#006DFF"/>
</svg>
