<svg width="20" height="20" viewBox="0 0 20 20" fill="none" xmlns="http://www.w3.org/2000/svg">
<mask id="mask0_6_16155" style="mask-type:alpha" maskUnits="userSpaceOnUse" x="0" y="0" width="20" height="20">
<rect width="20" height="20" fill="#D9D9D9"/>
</mask>
<g mask="url(#mask0_6_16155)">
<path d="M9.99068 17.1693C8.13415 17.1693 6.53797 16.5583 5.20214 15.3364C3.86644 14.1145 3.09672 12.608 2.89297 10.817C2.85519 10.5959 2.91915 10.4086 3.08484 10.2552C3.25068 10.1017 3.45227 10.0216 3.68964 10.0149C3.91477 10.0083 4.1179 10.068 4.29901 10.1941C4.47998 10.3201 4.58936 10.492 4.62714 10.7097C4.79644 12.0449 5.38602 13.167 6.39589 14.0762C7.40561 14.9855 8.60387 15.4402 9.99068 15.4402C11.488 15.4402 12.7691 14.9078 13.8338 13.8431C14.8985 12.7782 15.4309 11.4972 15.4309 9.99994C15.4309 8.50272 14.8985 7.22168 13.8338 6.15682C12.7691 5.0921 11.488 4.55973 9.99068 4.55973C9.16943 4.55973 8.40721 4.72341 7.70401 5.05078C7.00068 5.378 6.40464 5.83279 5.91589 6.41515H7.21589C7.43825 6.41515 7.62547 6.49078 7.77755 6.64203C7.92964 6.79328 8.00568 6.97953 8.00568 7.20078C8.00568 7.42203 7.92964 7.6105 7.77755 7.76619C7.62547 7.92203 7.43825 7.99994 7.21589 7.99994H3.73568C3.49332 7.99994 3.28866 7.91647 3.12172 7.74953C2.95464 7.58244 2.87109 7.37772 2.87109 7.13536V3.66036C2.87109 3.43786 2.94672 3.2514 3.09797 3.10098C3.24922 2.95057 3.43547 2.87536 3.65672 2.87536C3.87783 2.87536 4.06464 2.95057 4.21714 3.10098C4.36964 3.2514 4.44589 3.43786 4.44589 3.66036V5.5089C5.10144 4.68223 5.90651 4.02918 6.86109 3.54973C7.81582 3.07029 8.85901 2.83057 9.99068 2.83057C10.9829 2.83057 11.9143 3.01946 12.7848 3.39723C13.6555 3.77501 14.4135 4.28654 15.0588 4.93182C15.7042 5.57709 16.2157 6.33508 16.5934 7.20578C16.9712 8.07647 17.1601 9.00786 17.1601 9.99994C17.1601 10.992 16.9712 11.9234 16.5934 12.7941C16.2157 13.6648 15.7042 14.4228 15.0588 15.0681C14.4135 15.7133 13.6555 16.2249 12.7848 16.6027C11.9143 16.9804 10.9829 17.1693 9.99068 17.1693ZM10.7905 9.37494L12.6207 11.2002C12.7835 11.3629 12.8614 11.5465 12.8544 11.7508C12.8475 11.9552 12.7626 12.1388 12.5998 12.3016C12.4371 12.4644 12.2501 12.5458 12.0388 12.5458C11.8274 12.5458 11.6403 12.4644 11.4776 12.3016L9.48089 10.3049C9.39741 10.2215 9.33234 10.1274 9.28568 10.0229C9.23915 9.91842 9.21589 9.80835 9.21589 9.69265V6.77807C9.21589 6.55751 9.2929 6.37272 9.44693 6.22369C9.6011 6.07453 9.78734 5.99994 10.0057 5.99994C10.224 5.99994 10.4094 6.07515 10.5617 6.22557C10.7142 6.37598 10.7905 6.56237 10.7905 6.78473V9.37494Z" fill="#251F00"/>
</g>
</svg>
