<svg width="20" height="20" viewBox="0 0 20 20" fill="none" xmlns="http://www.w3.org/2000/svg">
<mask id="mask0_6_16175" style="mask-type:alpha" maskUnits="userSpaceOnUse" x="0" y="0" width="20" height="20">
<rect width="20" height="20" fill="#D9D9D9"/>
</mask>
<g mask="url(#mask0_6_16175)">
<path d="M2.57292 16.1544C2.09736 16.1544 1.69028 15.9851 1.35167 15.6465C1.01306 15.3079 0.84375 14.9008 0.84375 14.4252V6.86459C0.84375 6.62223 0.926806 6.4175 1.09292 6.25042C1.25903 6.08348 1.46271 6 1.70396 6C1.94507 6 2.15014 6.08348 2.31917 6.25042C2.48833 6.4175 2.57292 6.62223 2.57292 6.86459V14.4252H15.6335C15.8759 14.4252 16.0806 14.5083 16.2477 14.6746C16.4147 14.8407 16.4981 15.0443 16.4981 15.2854C16.4981 15.5267 16.4147 15.7318 16.2477 15.9008C16.0806 16.0699 15.8759 16.1544 15.6335 16.1544H2.57292ZM5.72729 13C5.25174 13 4.84465 12.8307 4.50604 12.4921C4.16743 12.1535 3.99813 11.7464 3.99813 11.2708V5.42521C3.99813 4.95952 4.16743 4.55487 4.50604 4.21125C4.84465 3.86778 5.25174 3.69604 5.72729 3.69604H17.4233C17.8892 3.69604 18.2938 3.86778 18.6373 4.21125C18.9808 4.55487 19.1525 4.95952 19.1525 5.42521V11.2708C19.1525 11.7464 18.9808 12.1535 18.6373 12.4921C18.2938 12.8307 17.8892 13 17.4233 13H5.72729ZM7.1525 11.3456C7.1525 10.9429 7.00319 10.5922 6.70458 10.2935C6.40597 9.99494 6.05528 9.84563 5.6525 9.84563V11.3456H7.1525ZM15.9981 11.3456H17.4981V9.84563C17.0815 9.84563 16.7273 9.99494 16.4356 10.2935C16.144 10.5922 15.9981 10.9429 15.9981 11.3456ZM11.5625 10.8456C12.2639 10.8456 12.8576 10.606 13.3438 10.1269C13.8299 9.64771 14.0729 9.05744 14.0729 8.35605C14.0729 7.65466 13.8299 7.06091 13.3438 6.5748C12.8576 6.08869 12.2674 5.84563 11.5729 5.84563C10.8646 5.84563 10.2708 6.08869 9.79167 6.5748C9.3125 7.06091 9.07292 7.65119 9.07292 8.34563C9.07292 9.05396 9.3125 9.64771 9.79167 10.1269C10.2708 10.606 10.8611 10.8456 11.5625 10.8456ZM5.6525 6.84563C6.05528 6.84563 6.40597 6.69875 6.70458 6.405C7.00319 6.11125 7.1525 5.75813 7.1525 5.34563H5.6525V6.84563ZM17.4981 6.84563V5.34563H15.9981C15.9981 5.7623 16.145 6.11646 16.4388 6.40813C16.7325 6.6998 17.0856 6.84563 17.4981 6.84563Z" fill="#251F00"/>
</g>
</svg>
