<svg width="20" height="20" viewBox="0 0 20 20" fill="none" xmlns="http://www.w3.org/2000/svg">
<mask id="mask0_6_16169" style="mask-type:alpha" maskUnits="userSpaceOnUse" x="0" y="0" width="20" height="20">
<rect width="20" height="20" fill="#D9D9D9"/>
</mask>
<g mask="url(#mask0_6_16169)">
<path d="M10.0053 18.1693C8.8849 18.1693 7.82858 17.9568 6.83635 17.5318C5.84427 17.1068 4.97531 16.5215 4.22948 15.7758C3.48365 15.0299 2.8983 14.161 2.47344 13.1689C2.04844 12.1767 1.83594 11.1204 1.83594 9.99994C1.83594 8.86564 2.04844 7.80584 2.47344 6.82057C2.8983 5.83543 3.48365 4.96994 4.22948 4.22411C4.97531 3.47841 5.84427 2.89307 6.83635 2.46807C7.82858 2.04307 8.8849 1.83057 10.0053 1.83057C11.1396 1.83057 12.1986 2.04307 13.1822 2.46807C14.1657 2.89307 15.0303 3.47841 15.7761 4.22411C16.5218 4.96994 17.1072 5.83543 17.5322 6.82057C17.9572 7.80584 18.1697 8.86564 18.1697 9.99994C18.1697 11.1204 17.9572 12.1767 17.5322 13.1689C17.1072 14.161 16.5218 15.0299 15.7761 15.7758C15.0303 16.5215 14.1657 17.1068 13.1822 17.5318C12.1986 17.9568 11.1396 18.1693 10.0053 18.1693ZM7.52531 15.9452L8.60031 13.8047C8.03823 13.607 7.54552 13.2972 7.12219 12.8756C6.69885 12.4539 6.38997 11.9636 6.19552 11.4047L4.0451 12.4749C4.38177 13.2601 4.84885 13.9522 5.44635 14.5514C6.04385 15.1506 6.73684 15.6152 7.52531 15.9452ZM6.19552 8.59515C6.37997 8.02959 6.68552 7.53765 7.11219 7.11932C7.53885 6.70098 8.0349 6.39126 8.60031 6.19015L7.51531 4.04473C6.73031 4.37807 6.03899 4.84515 5.44135 5.44598C4.84385 6.04682 4.37844 6.7398 4.0451 7.52494L6.19552 8.59515ZM10.0003 12.3306C10.6482 12.3306 11.1986 12.1041 11.6516 11.6512C12.1045 11.1983 12.3309 10.6479 12.3309 9.99994C12.3309 9.35203 12.1045 8.80161 11.6516 8.34869C11.1986 7.89577 10.6482 7.66932 10.0003 7.66932C9.3524 7.66932 8.80198 7.89577 8.34906 8.34869C7.89615 8.80161 7.66969 9.35203 7.66969 9.99994C7.66969 10.6479 7.89615 11.1983 8.34906 11.6512C8.80198 12.1041 9.3524 12.3306 10.0003 12.3306ZM12.4753 15.9452C13.2638 15.6152 13.9584 15.1506 14.5593 14.5514C15.1601 13.9522 15.6255 13.2585 15.9555 12.4701L13.8051 11.4047C13.6107 11.967 13.3018 12.4581 12.8784 12.8781C12.4551 13.2981 11.9624 13.607 11.4003 13.8047L12.4753 15.9452ZM13.8051 8.59994L15.9555 7.52494C15.6255 6.73647 15.1593 6.04265 14.5568 5.44348C13.9543 4.84432 13.2605 4.37807 12.4753 4.04473L11.4003 6.19015C11.9657 6.38459 12.4593 6.69348 12.8809 7.11682C13.3026 7.54015 13.6107 8.03452 13.8051 8.59994Z" fill="#251F00"/>
</g>
</svg>
