<svg width="16" height="16" viewBox="0 0 16 16" fill="none" xmlns="http://www.w3.org/2000/svg">
<path d="M12.1322 5.1641C11.7541 4.77502 11.134 4.76584 10.745 5.14257L10.3561 5.51925L10.3569 5.52004L6.32742 9.42707L5.01922 8.11887C4.63582 7.73547 4.01512 7.73634 3.63197 8.11827C3.24643 8.50257 3.2502 9.12435 3.63136 9.50673L5.62296 11.4983C5.81454 11.6899 6.06687 11.7856 6.31661 11.7856C6.56151 11.7856 6.80915 11.6932 6.99938 11.5091L12.1112 6.5519C12.4994 6.1748 12.5093 5.55352 12.1322 5.1641Z" fill="#251F00"/>
<path fill-rule="evenodd" clip-rule="evenodd" d="M8 0C3.58164 0 0 3.58164 0 8C0 12.4184 3.58223 16 8 16C12.4184 16 16 12.4184 16 8C16 3.58164 12.4184 0 8 0ZM1.66387 8C1.66387 4.50685 4.50634 1.66387 8 1.66387C11.4931 1.66387 14.3361 4.50688 14.3361 8C14.3361 11.4932 11.4937 14.3361 8 14.3361C4.50688 14.3361 1.66387 11.4931 1.66387 8Z" fill="#251F00"/>
</svg>
